# xmcd
#
# Track frame offsets:
#	150
#	22447
#	32302
#	44505
#	66142
#	95720
#	104272
#	123685
#	135367
#	152720
#	174495
#	191322
#	219672
#	242042
#	260667
#	277425
#	294817
#	311972
#
# Disc length: 4528 seconds
#
# Revision: 1
# Processed by: cddbd v1.5PL3 Copyright (c) Steve Scherf et al.
# Submitted via: CDex 1.50Beta5
#
DISCID=1511ae12
DTITLE=山本正之 - オールディーズナイト
DYEAR=1900
DGENRE=Pop
TTITLE0=それでも私は生きてきた
TTITLE1=長髪を許してくれよ
TTITLE2=キザの唄
TTITLE3=蛇女物語
TTITLE4=極道息子の物語
TTITLE5=ブタマンジャズ
TTITLE6=野菊の唄
TTITLE7=夏
TTITLE8=おいらの部屋の白い壁
TTITLE9=坂道
TTITLE10=退廃と堕落の中で
TTITLE11=田舎
TTITLE12=一年生
TTITLE13=風の中
TTITLE14=この赤い夕日の峠を越えて
TTITLE15=月光仮面よもう一度
TTITLE16=下宿町挽歌
TTITLE17=さよならラララ
EXTD=
EXTT0=
EXTT1=
EXTT2=
EXTT3=
EXTT4=
EXTT5=
EXTT6=
EXTT7=
EXTT8=
EXTT9=
EXTT10=
EXTT11=
EXTT12=
EXTT13=
EXTT14=
EXTT15=
EXTT16=
EXTT17=
PLAYORDER=
